<svg xmlns="http://www.w3.org/2000/svg" viewBox="0 0 146.33 145.24"><defs><style>.cls-1,.cls-11{fill:#fff;}.cls-1,.cls-10,.cls-2,.cls-3,.cls-4,.cls-5,.cls-9{stroke:#231f20;stroke-miterlimit:10;stroke-width:0.57px;}.cls-2{fill:#fcdde5;}.cls-3{fill:#9bd1f2;}.cls-4,.cls-6{fill:#fdc68a;}.cls-5{fill:#ee2f68;}.cls-7{fill:#231f20;}.cls-8{fill:#fbdde9;}.cls-9{fill:none;}.cls-10{fill:#e52268;}</style></defs><title>beerjs</title><g id="Layer_2" data-name="Layer 2"><path class="cls-1" d="M59,133.81s-2.36,3.75-2.62,5.95c0,0,.8,1.13,3.66.22s3.05-4.82,3.05-4.82Z"/><path class="cls-1" d="M82,136.38s-2.09,3.9-2.2,6.12c0,0,.88,1.06,3.66,0s2.71-5,2.71-5Z"/><path class="cls-1" d="M11.6,81.16S9.44,84.5,9.24,86.81c0,0,1.24,1.12,4,0s2.51-5.06,2.51-5.06Z"/><path class="cls-1" d="M12.33,48.14a19.38,19.38,0,0,0-5.87,1.5s2.18,5,5,3.93,3.07-1.71,3.07-1.71Z"/></g><g id="Layer_4" data-name="Layer 4"><path class="cls-2" d="M58,133.31l1,.5,4.09,1.35,1.21.17s5.52-11.9,8.45-15l1.86-2.41s-1.86-1.88-2.51-7c-.45-4.84-.11-6.36-.11-6.36s-9.94-3.45-15.33-8c-.57-.45,1.65,7.17,1.65,7.17s3.25,8,9.87,12.81C65.76,120.24,61.17,126,58,133.31Z"/><path class="cls-2" d="M81.71,136.27l.14.06a.85.85,0,0,0,.24.08l4,1h.75s.06-3.37,4.42-11c1.66-3,3-5.07,3.75-6.18a1.38,1.38,0,0,0-.09-1.68c-1.2-1.42-3.56-4.91-4.39-11.13a1.39,1.39,0,0,1,.25-1c1.13-1.58,4.85-7,5.16-11.25.36-5,.24-10-3.1-14.23S82.76,67.68,69.39,61.37c0,0-6-2.82-6-5.68s.12-4.84.75-6.29a26.41,26.41,0,0,1,6-7.55c2.35-2.06,3.72-11.84,2.12-14-.79-1.07-1.69-2.93-2.07-2.64-.16.12-2.2,3.6-2.2,3.6.65-1.08,1.15-2,1.51-2.63a14.54,14.54,0,0,0,.86-3.36C71.43,18.88,70,16,66.85,22a1.37,1.37,0,0,1-1.1.74c-6.57.6-24.18,2.49-24.18,2.49a7.23,7.23,0,0,1,.63,1.24c-.18-.42-.63-1.24-.63-1.24s-2-1.8-3.28,1.06c.39-.88.72-1.26.43-1.52s-1.74-.65-1.87.42A10.48,10.48,0,0,1,36,27.78a14.86,14.86,0,0,0-1.12,4.87A1.44,1.44,0,0,0,36.4,34.1a14.2,14.2,0,0,0,3.2-.79l.1,0c.65-.17,6.73-1.82,9.37-1.41,2.8.43,7,.79,4.23,3.63-3,2.18-14.52,1.71-14.52,1.71S36.17,37,36,38.36c-.14.93.76,1.14,1.33,1.18a1.4,1.4,0,0,1,.82.34l1.65,1.45s1.11,1.18,5,.84,8-.86,9.86-1,4.79-.39,5.18-.43h.09c.45-.07,3.89-.69,4.93-2.2a3.06,3.06,0,0,1-.79.82A16.7,16.7,0,0,1,60,40.77c-1.18.12-3.54.31-4.62.4a1.34,1.34,0,0,0-.91.44,13.21,13.21,0,0,1-3.76,2.92A76.27,76.27,0,0,0,41,49.78c-2.62,1.92-5.68,4-8.3,8.35a41.52,41.52,0,0,0-3.81,9.08,1.43,1.43,0,0,1-1.35,1,67.17,67.17,0,0,1-9.73-.57,1.4,1.4,0,0,0-1.49.77c-1.35,2.76-3.73,8.53-4.78,11.12a1.39,1.39,0,0,0,.92,1.9,8,8,0,0,0,3.6.28,1.44,1.44,0,0,0,1.1-.89c.8-2.07,1.74-5.46,2.25-7.38a1.4,1.4,0,0,1,1.78-1c3.32,1,11.4,3.38,12.48,2.75,1.37-.8,6.72-9.91,6.72-9.91l-4.13,6.57a1.44,1.44,0,0,0,0,1.51C38.15,76.49,46,88.52,56.67,96.46c3.25,2.33,4.83,3.28,4.83,3.28s7,3.75,10.5,4.75l.07,0,2.65.68c-1-2.54-.74-1.93-1-2.54-.64-1.78-1.46-4.18-1.89-5.74,1.17,3.69,2.2,6.73,2.2,6.73a28.37,28.37,0,0,0,13.5,14.69,1.4,1.4,0,0,1,.54,2A89.74,89.74,0,0,0,81,134.48,1.42,1.42,0,0,0,81.71,136.27Z"/><path class="cls-2" d="M30.28,62.64s-2.05-4.13-3.37-7.59-2.14-5.47-2.29-5.63S16.55,52.1,15,52.72l-.73-.81-2.17-3.72-.24-.55s12.81-3.81,14.28-3.73c1.13,1.9,7.63,12.3,7.63,12.3a35.45,35.45,0,0,0-3.52,6.43"/></g><g id="Layer_12" data-name="Layer 12"><path class="cls-3" d="M68.31,66.62a17.23,17.23,0,0,0-.2-10.05c-.74-2.82,2-6.94,2-6.94l2.07-3.34-4.51,4a1.88,1.88,0,0,1-.23.16,17.71,17.71,0,0,0-3,2,4,4,0,0,0-1.21,1.69C61.84,58.79,67.49,64.52,68.31,66.62Z"/><g id="Layer_11" data-name="Layer 11"><path class="cls-4" d="M79.7,67.55a16,16,0,0,0-4-7.12c-3.32-3.59-1.17-7.64-.29-10,1.06-2.66,1.11-5.38-.77-11.12a20.29,20.29,0,0,1-3.2,8.1,15.72,15.72,0,0,0-3.35,6.72,6,6,0,0,0-.1,1.11c.05,2.56,1.06,5.23,1,5.83C69.87,61.72,79.7,67.55,79.7,67.55Z"/><path class="cls-4" d="M73.25,36.25a15.08,15.08,0,0,1-3.5,6.14,15.61,15.61,0,0,1-5,3.86,4.15,4.15,0,0,0-1,.6,7.6,7.6,0,0,0-2.91,4,9.23,9.23,0,0,0,1,7.27,6.19,6.19,0,0,1,1.37-4.52,9.45,9.45,0,0,1,3.52-2.77,4.33,4.33,0,0,0,.81-.52c1.18-1.05,4.67-4.2,5.43-5.63a20.81,20.81,0,0,0,1.43-4,3.66,3.66,0,0,0,0-1.77A8.15,8.15,0,0,0,73.25,36.25Z"/><path class="cls-4" d="M76.14,32.68c0-.1.59,5,1.09,6.86a5.48,5.48,0,0,0,1,2.31,4.15,4.15,0,0,0,4.89,1.53c4.06-1.38,5.19-4,5.19-4s-4,1.83-6.94-.26S76.14,32.68,76.14,32.68Z"/><path class="cls-4" d="M48.08,21.87a5.06,5.06,0,0,0,2.59,2.8c2,.84,6.45-2.31,6.45-2.31s1.19-4.66-.47-3.52-2.8,2.79-5.07,3.23A5.7,5.7,0,0,1,48.08,21.87Z"/></g><path class="cls-3" d="M67.39,21.06C65.89,20,62.52,18.14,60.7,18c-5.28-.45-8,5.5-8.32,6.41a2.18,2.18,0,0,1-.2.37,2.73,2.73,0,0,1-1.87,1.09,3,3,0,0,0,2,1.16s2.37.68,5.33-3.26c1.6-2.13,4.85-3,8.33.52A15.35,15.35,0,0,1,67.39,21.06Z"/><g id="Layer_13" data-name="Layer 13"><path class="cls-1" d="M45.57,3.13l3.48,4.68a1.66,1.66,0,0,1,.92.55c.3.42,1.58,2.38,1.58,2.38a7.11,7.11,0,0,1,1.71,2L53.94,14s1.8,2,2,3c.71.29,2.21,2.37,2.13,3.12a11.63,11.63,0,0,1,2.16,2.25s1.29,1.16.21,1.91a2.68,2.68,0,0,1-2.37.21s-1.46-1.5-1.38-2.58a3.48,3.48,0,0,1-1.54-2.61c-.66-.18-1.83-1.3-2.08-3.43a4.37,4.37,0,0,1-2-3.41A5.11,5.11,0,0,1,48.83,9.1C47.91,8.44,45.57,3.13,45.57,3.13Z"/><path class="cls-1" d="M48.83,9.1a2.57,2.57,0,0,1,.22-1.29"/><path class="cls-1" d="M51,12.48s-.08-1.31.56-1.74"/><path class="cls-1" d="M53,15.89s-.12-1.83.91-1.92"/><path class="cls-1" d="M55.11,19.32A5.26,5.26,0,0,1,55.9,17"/><path class="cls-1" d="M56.65,21.93A3.22,3.22,0,0,1,58,20.14"/></g><path class="cls-3" d="M78.47,42.39a17.32,17.32,0,0,1-1.93-7.32,8,8,0,0,0-.2-1.47,31.73,31.73,0,0,0-1.46-4.48c-.86-2.13-4-5.28-4.42-5.83-.06.7-.19,1.15-.28,2-.05,1.24.08,2.91.08,4.36,1.5,2,1.71,4.44,3,6.57,2.08,3.45,1.53,4.14,2.1,5.81.45,1.33,2.85,2.4,3.38,4.5a19.69,19.69,0,0,1,.56,5.69,7.65,7.65,0,0,0,1.16-3.11A10.24,10.24,0,0,0,78.47,42.39Z"/><path class="cls-5" d="M70.26,25.23a11.35,11.35,0,0,1,3.16,5c.9,3.09-.83,7.82-.83,7.82.13.22-3.18,5.24-5,6.4a2.55,2.55,0,0,0-.47.34A17.22,17.22,0,0,0,63.85,50a10.6,10.6,0,0,1,1.81-8.81c3.18-4.25,4.58-5.53,4.58-7.82s-.07-4.83-.07-5.89Z"/><path class="cls-5" d="M75.71,44.37A21.54,21.54,0,0,1,76,48.46a27.72,27.72,0,0,1-.8,2.79,6.4,6.4,0,0,0,2.52,2.47c1.7.9,5.9,2.17,8.54,1a23,23,0,0,1-3.19-2.32,5.89,5.89,0,0,1-.87-.93,14.06,14.06,0,0,1-1.47-2.4c-.68-1.48-3-5-3-5l-1.8.29"/><path class="cls-5" d="M67.39,21.06c1.23-1.7.09-2.24-.63-2.67-1.55-1-3.68-1.44-3.39-3.62-.52.29-2.09.94-.93,3.61a.17.17,0,0,0,.11.11,21.26,21.26,0,0,1,4.84,2.57"/><path class="cls-5" d="M79.7,30.34s-1-3.8-3.16-5.85a15,15,0,0,0-5.9-2.89,7.18,7.18,0,0,0-.18,1.69c.29.26,2,2.39,2.37,2.72a13.1,13.1,0,0,1,2.65,4.81A21.64,21.64,0,0,0,78.36,36c1.07,1.39,2.77,1.08,4.43.41a9.08,9.08,0,0,0,3.22-3C81,36,79.7,30.34,79.7,30.34Z"/><path class="cls-5" d="M66.71,22.27l-.72,2s-1.41.07-3.78,1.84a4.34,4.34,0,0,1-1.82.59,2.39,2.39,0,0,1-2.68-.91,1.37,1.37,0,0,0,1.06-.25c.55-.44,1.63-3.69,3.86-4.58S66.71,22.27,66.71,22.27Z"/></g><g id="Layer_3" data-name="Layer 3"><g id="Layer_5" data-name="Layer 5"><path class="cls-5" d="M94.54,83.07s4.82,3.82,7.51,4,9.81,3.25,9.81,3.25a26.09,26.09,0,0,1,8.69,4.93,19.07,19.07,0,0,1,4.77,6.95,34.45,34.45,0,0,1,1,4c-2.13-2.46-3.19-4.7-8.07-8.35S105,92,105,92,95.56,89.82,94.54,83.07Z"/><path class="cls-5" d="M105.36,95a49.18,49.18,0,0,1,2.86,4,7,7,0,0,1,1,3.83c.12,1.45-.26,4.58.58,7.16a17.61,17.61,0,0,0,2.63,4.82,14.57,14.57,0,0,1,0-4.26,17.79,17.79,0,0,0,.52-4.93c0-1.51.15-4.27-1.58-6.84C109.73,96.35,105.36,95,105.36,95Z"/></g><g id="Layer_6" data-name="Layer 6"><path class="cls-4" d="M96.14,86.74S97.4,91.2,99,93.22a32.31,32.31,0,0,0,4.2,4.09,8.25,8.25,0,0,1,2.8,5.94,7.36,7.36,0,0,1-2.35,5.44,3.64,3.64,0,0,0,3.36-.9,7,7,0,0,0,2.13-4.14,8.61,8.61,0,0,0-.67-4.32A20.08,20.08,0,0,0,105.36,95c-.87-.87-3.32-1.19-5.49-3.87A56.77,56.77,0,0,1,96.14,86.74Z"/><path class="cls-4" d="M111.36,98.83a13.11,13.11,0,0,1,1.4,3.92c.17,1.68.28,6.17.62,7.62s.72,4.54,2.91,6.73a12.64,12.64,0,0,0,4,2.86,21.44,21.44,0,0,0,4.09.9c-1.51-1.29-2.63-2.36-2.63-2.36a9,9,0,0,1-2.47-5.6c-.33-3.7.11-5.89-1.06-8S111.36,98.83,111.36,98.83Z"/><path class="cls-4" d="M116.91,97.14s3.31,4.59,3.81,7.29a12.5,12.5,0,0,1,0,4.65,5.91,5.91,0,0,0,1.06,2.41c.79.9,2.86,3.65,4.88,4.6-.84-1.85-1.91-3.25-2.3-6.5s-1-6.28-1.57-7.23A13.7,13.7,0,0,0,116.91,97.14Z"/></g><path class="cls-3" d="M97.35,88s2.43,3.87,5.56,5.6a98.24,98.24,0,0,1,9.64,5.84c2.22,1.82,4.36,4.31,5.06,6.3a21.48,21.48,0,0,1,1,7.7,9.8,9.8,0,0,0,2.18-4.15s.63-3.38-.2-5.48-2.35-5.27-4-6.88a14.72,14.72,0,0,0-5.76-3.25c-1.44-.5-5.27-1.36-6.92-2S99.12,89.88,97.35,88Z"/><path class="cls-3" d="M92.17,80s3.12,3.72,6.55,4.34a21,21,0,0,0,8.16,0c2.51-.55,6.08-1.87,10.25.27s5,4.07,5.63,6c.58,1.76,2.14,7.6,7.43,8a5.67,5.67,0,0,1-4.82,1.33c-2.13-.54-4.34-2.37-6.38-6.06-2-4-2.43-4.39-3.78-5.29-1.54-1-4.23-1.35-7.31-1.19-5.07.27-5.86.45-8.62-.45S92.17,80,92.17,80Z"/><path class="cls-4" d="M104.44,87.63s9,3.17,9.78,3.65S119,93.92,119,93.92s-2-4.9-4.29-5.59C112.43,87.42,111.71,87.1,104.44,87.63Z"/><path class="cls-4" d="M105.36,87.58S112.12,87,114,88c2,.83,2.61.9,5,5.89a63.22,63.22,0,0,0-12.28-5.56c-2.85-.89-1.35-.78-1.35-.78"/></g><g id="Layer_7" data-name="Layer 7"><path class="cls-1" d="M77.55,41.6c-1.39-.74.17-1,.62-.9s1.06.94,2.45,2.46a40.64,40.64,0,0,0,7.65,2.64.58.58,0,0,0,.48-.09l.88-.59c4.14,2.5,9.18,1,9.18,1a8,8,0,0,1,.72,1.57.61.61,0,0,0,.41.4c1.83.5,11.19,2.89,10.54-.83-.62-2.76,1-.53,1.23,0s1,0,1,0,.94-.86,1.48-.49.24.86,0,1.31a1.12,1.12,0,0,1,.45,1.35c.41.29.2.66,0,1.11s-1,.69-1,.69a20.38,20.38,0,0,1-3.84-.42,3.75,3.75,0,0,0-1.25-.06,31.76,31.76,0,0,1-9-.46.35.35,0,0,0-.41.34v.84a7.93,7.93,0,0,1-.24,2c-.55,2.09-1.48,4.7-2.09,6.34a13.32,13.32,0,0,1-2.06,3.68A29,29,0,0,1,92.53,66a1.42,1.42,0,0,0-.21.29A40.22,40.22,0,0,0,88.8,77.21a.7.7,0,0,1-.45.56c-1,.32-1.38,1.21-1.79,1.47s-1.67,0-.47-1.7c-1.46,2-2.54-.1-.88-.82-2.59,1-.91-1-.57-1.13a17.66,17.66,0,0,1,2.1-.14.52.52,0,0,0,.47-.55A60.53,60.53,0,0,1,88,65.16a.47.47,0,0,0-.34-.53A8.36,8.36,0,0,1,84,62a.74.74,0,0,0-.73-.26,11.46,11.46,0,0,0-4.45,2.13A6.83,6.83,0,0,0,75.91,68a.82.82,0,0,1-.73.69,5.68,5.68,0,0,0-2.25.9c-1.19-.08-1-1,.09-1.7-1.37,1-3.16.1-.53-.8-1.95,1-1.94-1.43,0-1.1s2-.16,2-.16l1-2.3a6.3,6.3,0,0,1,3.23-3.68,17.59,17.59,0,0,0,3.18-1.52,1.38,1.38,0,0,0,.7-1c.5-3.25,3.32-7.84,4.23-9.26a.41.41,0,0,0-.2-.61L79.83,45"/><path class="cls-1" d="M88.32,30.22S91.4,31.44,92.21,33a20.71,20.71,0,0,1,8.24,1.39A20,20,0,0,1,105.93,33s1.31,2.13-2.13,6.88c-.69,3.4-2.13,4.59-2.13,4.59a7,7,0,0,1-2.86,1.68c-1.46.29-5.33,1.22-9.18-1-2-2.25-2.17-3.48-2.17-3.48a8.24,8.24,0,0,1,0-4.09,8.34,8.34,0,0,1,1-2.34A12.89,12.89,0,0,1,88.32,30.22Z"/><path class="cls-1" d="M94.21,64.17s.3,2.66,1.24,3.68,1.19,1.52,2.09,1.52,3.32-.74,4.26-.21a2.58,2.58,0,0,1,1.51,1.89,2.82,2.82,0,0,1-1.64,2.86c-1.63.74-3.52,1.07-5.16-.49a11.83,11.83,0,0,1-3.4-8Z"/><path class="cls-6" d="M97.22,58.86S90.9,57,94.84,56.63c2.32-.13,3,.32,3,.32Z"/><path class="cls-6" d="M94.9,63.33s-5.17-3.07-1.35-2.52c1.28.3,2.75.49,2.75.49Z"/><path class="cls-6" d="M98.54,54.94s-8.1-1.25-2.82-2.17a17.91,17.91,0,0,1,3.44-.1Z"/><path class="cls-6" d="M99.52,47.68s-.54,1.75.12,2.52c.89.16,6.8.85,8,.55s0-1.5,0-1.5S101.61,49,99.52,47.68Z"/><path class="cls-6" d="M88,65.16s1.34.25,1.59,1.36.66,2.61-.47,3.66-1.82.91-1.82.91Z"/><path class="cls-6" d="M95,67.22s0,.92-1.45,1.1c.28.88.45,1.35.45,1.35a1.72,1.72,0,0,0,1.86-1.23C95.45,67.85,95,67.22,95,67.22Z"/><path class="cls-6" d="M97,69.27a4.94,4.94,0,0,1-1.62,2.8c.68.85,1.17,1.35,1.17,1.35s2.18-1.82,1.88-4.15A5.49,5.49,0,0,1,97,69.27Z"/><path class="cls-6" d="M99.44,69.1s1.92,3.36-1.23,5l.2.36s1.72.64,4.23-1.23a2.71,2.71,0,0,0,0-3.44S102,68.54,99.44,69.1Z"/><path class="cls-6" d="M96.14,36.47a4.13,4.13,0,0,0,.17,5c2,2.61,4.93,0,4.93,0a2.62,2.62,0,0,0,.61-2.54C101.3,37.66,97.75,36.11,96.14,36.47Z"/><path class="cls-6" d="M92.21,33a3.29,3.29,0,0,1-3.77,2,11.75,11.75,0,0,1-.12-4.77S91.14,31.19,92.21,33Z"/><g id="Layer_8" data-name="Layer 8"><path class="cls-7" d="M90.86,41.86a1.4,1.4,0,0,0,1.47-.55,4.23,4.23,0,0,0,.54-.72c.19-.31.26-.8.49-1.05s-.15-.67-.4-.4-.35.79-.58,1.16a4.57,4.57,0,0,1-.45.61.9.9,0,0,1-.92.41c-.36-.07-.51.48-.15.54Z"/><path class="cls-7" d="M92.88,39.42a7.88,7.88,0,0,0,.2,1.61,2.39,2.39,0,0,0,.7,1.09c.25.27.65-.13.4-.4a2,2,0,0,1-.59-1,7.08,7.08,0,0,1-.14-1.3c0-.36-.58-.36-.57,0Z"/><path class="cls-7" d="M96,39.55c.88-.28,1.76-.56,2.66-.81a.29.29,0,0,0-.15-.55c-.9.25-1.78.54-2.66.82-.35.11-.2.66.15.54Z"/><path class="cls-7" d="M89,37.83a2.53,2.53,0,0,1,1.51.61c.28.23.68-.17.4-.4A3.19,3.19,0,0,0,89,37.26c-.36,0-.36.55,0,.57Z"/><path class="cls-7" d="M101.6,35.76a4.09,4.09,0,0,1,2.32-.76.28.28,0,0,0,0-.56,4.52,4.52,0,0,0-2.6.83c-.3.21,0,.71.28.49Z"/><path class="cls-7" d="M91,33.23a4,4,0,0,0-1.48-1.62c-.31-.2-.59.29-.28.49a3.36,3.36,0,0,1,1.27,1.42c.17.32.66,0,.49-.29Z"/><path class="cls-8" d="M93.2,37.85a1.34,1.34,0,0,1,1.07.27.8.8,0,0,1,.16.42.39.39,0,0,1-.05.28.41.41,0,0,1-.15.14,1.61,1.61,0,0,1-.53.25,1.06,1.06,0,0,1-.5,0"/><path class="cls-7" d="M93.2,38.13c.29,0,.85-.05.93.34s-.58.51-.85.47-.51.5-.15.55c.58.08,1.57-.13,1.58-.88s-.8-1.09-1.51-1c-.36,0-.36.59,0,.56Z"/><path class="cls-8" d="M93.2,39.21a.92.92,0,0,1-.65-.31.8.8,0,0,1-.09-.72.92.92,0,0,1,.74-.33"/><path class="cls-7" d="M93.28,38.94c-.25,0-.7-.15-.58-.54.07-.2.29-.24.5-.27s.37-.6,0-.56-1,.21-1.06.72a1.06,1.06,0,0,0,1,1.2c.35.06.51-.49.15-.55Z"/><path class="cls-7" d="M97.54,39.53a.59.59,0,1,1-1.17,0c-.15-.45.26-.58.59-.58C97.47,38.67,97.54,39.21,97.54,39.53Z"/><path class="cls-7" d="M90.54,38.79a.58.58,0,0,1-.8.2.65.65,0,0,1-.2-.81c.2-.44.53-.36.8-.19C90.93,38,90.71,38.52,90.54,38.79Z"/></g><path class="cls-7" d="M115,49.34c.09-.77-.22-.91-.33-1.55-.07-.38.25-.59,0-1-.59-1-1.43-.07-2.08.14-1.13.37-1-1.07-1.89-1.27-.73-.16-.66.67-.59,1.16.17,1.3-.18,1.88-1.52,2.11a12.86,12.86,0,0,1-4.06-.15c-1.1-.16-2.19-.39-3.27-.65a4.34,4.34,0,0,1-1.14-.29c-.53-.33-.76-1.37-1.07-1.87a.3.3,0,0,0-.32-.13,11.81,11.81,0,0,1-9-.95.28.28,0,0,0-.29,0,2.43,2.43,0,0,1-2.53.29c-1.43-.4-2.86-.85-4.24-1.39a6.42,6.42,0,0,1-2.58-1.58c-.41-.42-.75-.9-1.19-1.29a1.48,1.48,0,0,0-1.61-.44c-.41.14-.72.34-.59.8s.86.75,1.06.93a6.12,6.12,0,0,1,1,1.33A11.48,11.48,0,0,0,79.56,45c.66.72,2.31,1,3.21,1.34l2.48.93c.54.21,1.32.25,1.26.86,0,.34-.58.92-.75,1.22-.34.56-.66,1.12-1,1.69a30.15,30.15,0,0,0-1.75,3.73,14.89,14.89,0,0,0-.57,1.83,2.67,2.67,0,0,1-1.59,2c-.75.4-1.54.68-2.3,1a7.22,7.22,0,0,0-3.53,4.24,6.17,6.17,0,0,1-.78,1.83c-.56.5-1.92-.21-2.73.09A1.09,1.09,0,0,0,70.78,67c.23.83,1.2.61,1.79.39.34-.13.19-.68-.15-.55s-1.94.66-1.48,1.46,1.75.14,2.22-.15l-.28-.49c-.56.41-1.45,1.19-.82,1.91a1.16,1.16,0,0,0,.94.32,4.81,4.81,0,0,0,1-.51c.47-.22,1-.25,1.43-.44.64-.26.7-.68.87-1.26a8.12,8.12,0,0,1,3.77-4.33,8.75,8.75,0,0,1,2.6-1.19c1-.21,1.5.44,2.23,1s1.53.92,2.22,1.46c.86.68.51,1.42.38,2.36-.23,1.73-.4,3.48-.51,5.22a16.75,16.75,0,0,1-.06,2c-.22,1.29-1.23.78-2.18,1.06-.5.15-1.22.76-1.22,1.35,0,1,1.22.54,1.77.35l-.22-.52c-.61.34-1.37,1.18-.77,1.9s1.56-.1,2-.63l-.45-.34c-.4.64-1,2,.21,2.21a1,1,0,0,0,.71-.17c.28-.17.43-.49.65-.71.39-.37,1.08-.53,1.41-1a2.65,2.65,0,0,0,.38-1.26c.16-.82.34-1.64.55-2.45.27-1,.58-2.09.93-3.11a20.39,20.39,0,0,1,1.88-4.55c.61-.92,1.56-1.67,2.26-2.53A14.44,14.44,0,0,0,96.69,61a45,45,0,0,0,2.2-6.18,12.41,12.41,0,0,0,.62-3.13,3.93,3.93,0,0,1,0-.91c.21-.33.6-.15,1-.09a33.32,33.32,0,0,0,6.31.44c.73,0,1.47-.17,2.2-.16a18,18,0,0,1,2.29.33,8.66,8.66,0,0,0,2.38.17c1-.18,2-1.39,1.21-2.28-.24-.27-.64.13-.4.4.5.57-.46,1.22-.85,1.31a3.93,3.93,0,0,1-1,0c-1.23-.07-2.44-.45-3.66-.46s-2.63.2-4,.16a34,34,0,0,1-3.77-.32c-.83-.12-2.13-.72-2.35.43s-.08,2.08-.36,3.12-.67,2.25-1,3.35a20,20,0,0,1-3.37,6.69,31,31,0,0,0-2.1,2.34,18.16,18.16,0,0,0-1.52,3.53,40.45,40.45,0,0,0-1.79,6.21,5.66,5.66,0,0,1-.18.93c-.21.57-.63.72-1,1.06-.25.22-.46.49-.71.69a3.87,3.87,0,0,1-.32.37q-.78-.63-.18-1.23c.17-.26-.24-.59-.44-.34-.15.42-.37.47-.65.14-.51-.16-.47-.33.11-.52.28-.15.09-.63-.22-.52s-1,.46-.92,0a1.38,1.38,0,0,1,.5-.55c.7-.34,1.78.23,2.43-.27s.35-2.37.39-3.19c.11-2,.32-4,.6-6,.07-.5.33-1.14.11-1.63s-1.41-.92-1.92-1.25c-1.19-.77-2-2.34-3.56-2A11.33,11.33,0,0,0,78,64.12a8.62,8.62,0,0,0-2.31,3.41c-.24.62.19.47-.8.91-.24.12-.56.16-.82.26s-.58.26-.86.41c-1-.16-1-.48-.09-1,.29-.21,0-.68-.28-.49a1.94,1.94,0,0,1-1.12.4c-.06-.46.21-.68.81-.67.34-.13.19-.68-.15-.55-.15.06-1.06.13-1-.34s1.21-.17,1.47-.15a4.19,4.19,0,0,0,1.06,0,1.14,1.14,0,0,0,.75-.34,12.72,12.72,0,0,0,.91-2.13,6.67,6.67,0,0,1,3.21-3.8c1-.47,2.75-.9,3.59-1.82a4.79,4.79,0,0,0,.72-2.06,20.54,20.54,0,0,1,1.39-3.48c.44-.91.93-1.8,1.44-2.68a11.57,11.57,0,0,0,1.1-1.8c.25-.78-.27-1-.89-1.23l-3.68-1.38L80.74,45a2.41,2.41,0,0,1-.53-.2c-.32-.23-.06,0-.26-.32-.49-.68-.72-1.51-1.29-2.18-.18-.22-.88-.66-1-.92-.25-.7.57-.32.86-.06.71.62,1.18,1.54,1.93,2.09a12.33,12.33,0,0,0,2.92,1.24c1,.36,2,.69,3.09,1a7.41,7.41,0,0,0,1.78.46c.6,0,.76-.45,1.28-.56s2.07.82,2.76,1a13.6,13.6,0,0,0,5.24.15,6.06,6.06,0,0,1,1.29-.27c-.45,0-.12-.09,0,.27a3.43,3.43,0,0,0,.69,1.47c.62.56,2,.63,2.76.8a25.9,25.9,0,0,0,4.71.64c1,0,2.47,0,3.3-.73a1.64,1.64,0,0,0,.53-1c.06-.42-.23-1-.15-1.35.05-.22-.3-.39.13-.08a2.19,2.19,0,0,1,.41.5c.27.37.39.73.87.8a1.34,1.34,0,0,0,.75-.22s.1-.09.14-.1l.06,0c.39-.43.73-.26,1,.53a.29.29,0,0,0,0,.34,1,1,0,0,1,.36,1.15C114.37,49.7,114.94,49.7,115,49.34Z"/><path class="cls-7" d="M72.15,67.55l.49-.19c.29-.13.08-.63-.22-.52L72,67c-.34.14-.19.68.15.55l.42-.16-.22-.52A2.09,2.09,0,0,1,72,67,.29.29,0,0,0,72.15,67.55Z"/><path class="cls-9" d="M88.32,30.22S91.4,31.44,92.21,33a20.71,20.71,0,0,1,8.24,1.39A20,20,0,0,1,105.93,33s1.31,2.13-2.13,6.88c-.69,3.4-2.13,4.59-2.13,4.59a7,7,0,0,1-2.86,1.68c-1.46.29-5.33,1.22-9.18-1-2-2.25-2.17-3.48-2.17-3.48a8.24,8.24,0,0,1,0-4.09,8.34,8.34,0,0,1,1-2.34A12.89,12.89,0,0,1,88.32,30.22Z"/><path class="cls-10" d="M109.19,42.81,109,44.25a3.71,3.71,0,0,1-2.55-.34.7.7,0,0,1-.23-.44,3,3,0,0,0-.77-1.72c-.3-.25-1.86-1.08-1.86-1.08a12.4,12.4,0,0,0-5-3.65c-3-1-5.87-2-10.75.17-1.29.76-.73-.73-.73-.73A2.32,2.32,0,0,1,88.44,35c1-.31,5.73-1.3,9,0s7,2.87,6.12,5.68l1-.72a4.57,4.57,0,0,1,2.15-.86,5,5,0,0,1,2.36.81,3.86,3.86,0,0,0,1.87-.06c.76,1.14.89,1.29.89,1.29a4.5,4.5,0,0,1-2.65,0c-1.4-.43-2.19-1.36-4.65-.5a4.06,4.06,0,0,1,2.78,1.71A2.22,2.22,0,0,0,109.19,42.81Z"/><path class="cls-9" d="M94.21,64.17s.3,2.66,1.24,3.68,1.19,1.52,2.09,1.52,3.32-.74,4.26-.21a2.58,2.58,0,0,1,1.51,1.89,2.82,2.82,0,0,1-1.64,2.86c-1.63.74-3.52,1.07-5.16-.49a11.83,11.83,0,0,1-3.4-8Z"/></g><g id="Layer_15" data-name="Layer 15"><path class="cls-1" d="M119.22,39.28l15.18,3.64s-.84,13.83-7.25,18.54a1.84,1.84,0,0,1-.75.31,10.66,10.66,0,0,1-7.62-1.39,3.21,3.21,0,0,1-1.34-1.75C116.69,56.23,115.44,49.69,119.22,39.28Z"/><path class="cls-4" d="M120.51,39.59s-3.37,7.75-2.46,15.91a3.53,3.53,0,0,0,1.44,2.25s3.15,2.1,6,1.89a3.05,3.05,0,0,0,1.42-.35A2.52,2.52,0,0,0,128,58.23a41.71,41.71,0,0,0,5-15.65Z"/><path class="cls-1" d="M116.71,54.6s-5.93-.77-5-7.39,6.43-4.59,6.43-4.59l-.46,1.72s-3.9-.78-3.9,3.69a4.6,4.6,0,0,0,2.85,4.25Z"/><path class="cls-1" d="M118.41,47s.8-1.63,2-1.37a17.35,17.35,0,0,0,1.93.26,6.42,6.42,0,0,0,3.58-.71l0,0a6.41,6.41,0,0,1,1.8-.62,5.6,5.6,0,0,1,2-.05c.55.08,1.46.22,1.91-.32a3.92,3.92,0,0,1,2.58-1.63c1-.22,2.75-1,1.63-2.54s-4.08-1.6-4.08-1.6a4.17,4.17,0,0,1-2-.45,1.9,1.9,0,0,0-.53-.27c-2.13-.55-4.63.33-5.77.62-.27.07-.53.15-.79.24-.6.21-1.84.51-2.08,1.06A42.26,42.26,0,0,0,118.41,47Z"/><path class="cls-1" d="M138.31,39.73a1.27,1.27,0,0,0,.19,1.38,2.13,2.13,0,0,0,1.34.73,8.93,8.93,0,0,1,2,.49s2.88.8,2.75-.75a2.62,2.62,0,0,0-.57-1.37,4.08,4.08,0,0,0-3-1.53C140,38.61,138.77,38.75,138.31,39.73Z"/><line class="cls-1" x1="119.22" y1="39.28" x2="134.4" y2="42.92"/></g><g id="Layer_14" data-name="Layer 14"><path class="cls-5" d="M18.22,24a2.7,2.7,0,0,0,2.15,1.19l19.48,1.28a1.37,1.37,0,0,1,.3,2.17c-2,.51-15.86,3.81-19.79,4.74a4.09,4.09,0,0,0-2.66,1.93c-.72,1.33-.78,3.39,2.51,6-1.87.54-5.35-3-5.72-3.15,0,0-5.43-4.31-4.75,2.62-2.11-1.54-2-5.82-2-5.82a2.11,2.11,0,0,0-1.86-2,5.55,5.55,0,0,1-1.7-1A4.37,4.37,0,0,1,2.69,27a3.84,3.84,0,0,1,.77-1.22A3.23,3.23,0,0,1,5.53,24.6a4.54,4.54,0,0,0-.4,2.11A2.47,2.47,0,0,0,7.2,28.92c1.29.11,1.36-1.15,1.22-1.64-.27-.94-1.64-2.86.64-3.86,0,1.11.64,1.25.64,1.25s1.79.43,3.68-2.28,5.29-3.22,7.43-3C19.23,20.72,17.09,22.17,18.22,24Z"/><path class="cls-5" d="M11.35,18.89s-4.86,1.35-5,3.14C7.45,21.92,11,21.31,11.35,18.89Z"/><path class="cls-5" d="M23.84,21.67a3.48,3.48,0,0,1,3.22-1.39,10.63,10.63,0,0,0,4.14-.5s-1.68,2.14-2.86,1.89A11.24,11.24,0,0,0,23.84,21.67Z"/><path class="cls-5" d="M22.84,39.35a3,3,0,0,0,5.25-.75,2.09,2.09,0,0,1,2-1.36,2.49,2.49,0,0,0-1.93-.36A10,10,0,0,0,26.27,38C25.45,38.63,25.41,39.2,22.84,39.35Z"/><path class="cls-4" d="M16.49,28.31,37,27.42s1.57.36,0,.89c-1.89.25-20,2.67-21.78,6-.39-1.54,1.22-3.47,1.22-3.47s-4.37.05-5.43,1.75a3.1,3.1,0,0,1,2.14-3.75S10.81,26.42,14.7,25C14.17,26.42,14,28.21,16.49,28.31Z"/></g><g id="Layer_10" data-name="Layer 10"><path class="cls-1" d="M76.13,44.78s.13-2.07.92-1.71.61.48.64,1S77.77,45.55,76.13,44.78Z"/><path class="cls-1" d="M76.54,43.23s-.18-1-1.06-.83c0,0-.93,1.13-.47,1.65a1.07,1.07,0,0,0,.88.31A2.32,2.32,0,0,0,76.54,43.23Z"/><path class="cls-1" d="M75.48,42.4s-.13-.78-.78-.58A2.35,2.35,0,0,0,74,42.88s-.18.81.35.86c.31,0,.56-.36.56-.36Z"/><path class="cls-1" d="M114.34,47.78a3.56,3.56,0,0,1-1.45.22c-.5-.12-.16-.83-.16-.83s.85-.75,1.33-.56A.75.75,0,0,1,114.34,47.78Z"/><path class="cls-1" d="M114.29,47.89s-1.43-.1-1.41.77,1,.59,1,.59.83-.18.8-.75C114.68,48.26,114.29,47.89,114.29,47.89Z"/><ellipse class="cls-1" cx="114.09" cy="49.95" rx="0.78" ry="0.7"/><path class="cls-7" d="M59.47,28.55c-.32.06-.63.11-.94.18A15.67,15.67,0,0,0,55.13,30"/><path class="cls-7" d="M59.39,28.27A15.56,15.56,0,0,0,55,29.71c-.32.17,0,.66.29.49a14.87,14.87,0,0,1,4.26-1.38c.36-.07.21-.61-.15-.55Z"/><path class="cls-7" d="M56.05,29.6a1.44,1.44,0,0,0,.72,1.16,1.9,1.9,0,0,0,1.38.17,1,1,0,0,0,.38-.15,1.32,1.32,0,0,0,.39-.79,1.82,1.82,0,0,0,0-1.28"/><path class="cls-7" d="M55.77,29.6a1.92,1.92,0,0,0,2.46,1.61c1-.26,1.29-1.78.89-2.64-.15-.33-.64-.05-.49.28.26.55.06,1.61-.55,1.81a1.34,1.34,0,0,1-1.74-1.06c0-.36-.6-.36-.57,0Z"/><path class="cls-11" d="M57,30.08a.29.29,0,0,0,0-.57.29.29,0,0,0,0,.57Z"/><path class="cls-11" d="M58.08,29.08a.44.44,0,0,0,.19.86c.59,0,.42-.66,0-.82l.2.2v0l-.13.32-.24-.09c.06.36.61.21.55-.15a.39.39,0,0,0-.59-.25.28.28,0,0,0-.13.32c0,.08.19.32.19.15l.14-.24v.26c.34-.13.19-.67-.15-.54Z"/><path class="cls-7" d="M68.63,21.36a10.13,10.13,0,0,1-1.84,5.14c-.21.3.28.59.49.29a10.68,10.68,0,0,0,1.91-5.43c0-.36-.54-.36-.56,0Z"/><path class="cls-1" d="M36.91,37.41s-.74-.86-.75-3.29a26.86,26.86,0,0,0,3.46-.83s6.63-1.86,9.43-1.43,7.13.79,4.23,3.63C50.78,37.55,41.16,37.41,36.91,37.41Z"/><line class="cls-9" x1="38.92" y1="33.55" x2="39.93" y2="37.21"/><line class="cls-9" x1="41.88" y1="32.72" x2="42.91" y2="37.12"/><line class="cls-9" x1="45.44" y1="32.03" x2="46.42" y2="36.93"/><line class="cls-9" x1="49.07" y1="31.86" x2="49.75" y2="36.57"/><line class="cls-9" x1="52.62" y1="32.53" x2="53.05" y2="35.64"/></g></svg>